<?xml version="1.0" encoding="iso-8859-1"?>
<!-- Generator: Adobe Illustrator 19.0.0, SVG Export Plug-In . SVG Version: 6.00 Build 0)  -->
<svg version="1.1" id="Layer_1" xmlns="http://www.w3.org/2000/svg" xmlns:xlink="http://www.w3.org/1999/xlink" x="0px" y="0px"
	 viewBox="0 0 512.001 512.001" style="enable-background:new 0 0 512.001 512.001;" xml:space="preserve">
<g>
	<g>
		<path d="M495.544,1.581c-8.769-3.887-19.029,0.071-22.915,8.839l-24.689,55.692l-5.149-45.852
			c-0.634-5.652-3.997-10.636-8.998-13.339c-5.003-2.706-11.014-2.789-16.089-0.223l-36.098,18.233
			c-3.817,1.928-6.788,5.196-8.346,9.179l-14.286,36.547l-45.738,2.071c-4.778,0.216-9.257,2.393-12.377,6.018l-44.691,51.918
			L211.103,78.7c-3.113-3.592-7.563-5.749-12.309-5.97l-45.761-2.142l-14.292-36.526c-1.558-3.983-4.532-7.253-8.35-9.179
			L94.292,6.671c-5.076-2.56-11.084-2.473-16.087,0.23c-5.001,2.706-8.361,7.688-8.995,13.338l-5.146,45.833L39.375,10.339
			C35.49,1.569,25.231-2.393,16.461,1.493C7.692,5.379,3.733,15.637,7.617,24.406l52.347,118.166
			c2.48,5.599,7.725,9.479,13.805,10.208l111.804,13.446l-36.371,33.447c-0.669,0.615-1.289,1.282-1.854,1.994
			c-1.505,1.898-2.922,3.843-4.27,5.823l-7.756-2.994c-8.951-3.453-19.002,1.001-22.456,9.949c-3.454,8.949,1,19.002,9.948,22.457
			l6.119,2.362c-4.386,18.042-3.546,37.232,2.896,55.452l47.254,133.667l-1.89,12.024c-2.826,17.983,2.338,36.111,14.168,49.947
			c11.831,13.835,29.056,21.649,47.261,21.649h33.935c18.204,0,35.43-7.814,47.26-21.649c11.831-13.836,16.994-32.024,14.168-50.008
			l-1.89-11.994l47.254-133.652c6.441-18.22,7.281-37.402,2.896-55.444l6.119-2.358c8.949-3.454,13.403-13.506,9.948-22.454
			c-3.453-8.949-13.506-13.398-22.456-9.948l-7.756,2.994c-1.348-1.979-2.764-3.924-4.269-5.821
			c-0.565-0.712-1.184-1.379-1.854-1.995l-36.244-33.331l112.503-13.561c6.076-0.733,11.319-4.609,13.799-10.204l52.347-118.079
			C508.269,15.729,504.313,5.469,495.544,1.581z M92.951,120.103l7.991-71.165l7.873,3.978l15.977,40.85
			c2.497,6.384,8.515,10.731,15.362,11.051l49.584,2.38l23.711,27.395L92.951,120.103z M190.421,356.241l-25.843-73.105
			c-3.614-10.222-4.48-20.918-2.775-31.188l23.301,8.994c-1.165,2.516-1.833,5.309-1.833,8.263c0,10.225,7.783,18.629,17.747,19.618
			L190.421,356.241z M346.602,283.136l-25.843,73.105l-10.596-67.418c9.964-0.989,17.747-9.393,17.747-19.618
			c0-2.955-0.668-5.747-1.833-8.263l23.301-8.994C351.082,262.218,350.217,272.914,346.602,283.136z M333.525,220.232h0.352
			l-52.523,20.506c-7.631,2.947-12.173,10.934-10.903,19.016l26.778,170.433l-8.626,3.404c-8.932,3.495-13.34,13.582-9.845,22.515
			c2.566,6.559,8.679,10.675,15.283,11.018c-0.205,0.258-0.408,0.399-0.622,0.651c-5.222,6.106-12.826,9.492-20.863,9.492h-33.935
			c-8.035,0-15.64-3.381-20.863-9.488c-0.211-0.247-0.409-0.44-0.61-0.692c6.755-0.195,13.065-4.305,15.681-10.995
			c3.495-8.932-0.914-18.992-9.845-22.486l-9.012-3.519l26.753-170.219c1.27-8.08-3.271-16.184-10.903-19.13l-52.525-20.505h0.353
			l45.006-40.523h65.86L333.525,220.232z M298.689,134.615l23.604-27.527l49.53-2.244c6.859-0.31,12.891-4.632,15.39-11.026
			l15.979-40.88l7.87-3.975l7.989,71.143L298.689,134.615z"/>
	</g>
</g>
<g>
</g>
<g>
</g>
<g>
</g>
<g>
</g>
<g>
</g>
<g>
</g>
<g>
</g>
<g>
</g>
<g>
</g>
<g>
</g>
<g>
</g>
<g>
</g>
<g>
</g>
<g>
</g>
<g>
</g>
</svg>
