<svg id="Layer_1" enable-background="new 0 0 512.119 512.119" height="512" viewBox="0 0 512.119 512.119" width="512" xmlns="http://www.w3.org/2000/svg"><path d="m504.351 138.313c-91.159-54.695-78.895-47.354-80.054-48.029 29.414-8.826 50.263-27.356 62.133-51.096 3.952-7.903.748-17.514-7.156-21.466-7.904-3.953-17.515-.747-21.466 7.156-7.223 14.447-19.551 25.806-34.388 31.914 5.636-9.83 8.699-21.058 8.699-32.759 0-8.836-7.164-16-16-16s-16 7.164-16 16c0 10.365-4.642 20.024-12.736 26.499l-7.776 6.221 4.351-30.457c1.25-8.748-4.829-16.852-13.577-18.102-8.747-1.247-16.852 4.829-18.102 13.577l-2.796 19.575c-6.858-4.898-13.364-8.18-13.364-17.312 0-8.836-7.164-16-16-16s-16 7.164-16 16c0 9.989 3.211 19.599 8.917 27.523l-32.613-10.191c-14.271-4.46-26.697-13.767-34.991-26.207-4.903-7.353-14.837-9.34-22.188-4.438-7.353 4.902-9.339 14.836-4.438 22.188 12.342 18.513 30.834 32.363 52.072 39l65.816 20.567c-11.148 3.242-23.311 2.301-33.966-3.027-24.352-12.175-53.822-10.774-76.91 3.655-18.582 11.613-27.235 18.93-43.682 18.93h-94.017c-48.523 0-88 39.477-88 88 0 34.051-1.62 48.207 7.078 69.407 5.197 12.667 6.085 26.921 2.501 40.136-9.706 35.793-9.994 35.236-9.45 39.488l16 125c.917 7.16 4.27 8.995 20.557 25.282 5.603 5.604 11.451 4.687 19.313 4.687 8.836 0 16-7.164 16-16 0-8.201-6.073-16-17.373-16l-7.451-7.451-14.901-116.43 8.19-30.202c5.416-19.971 4.073-41.513-3.781-60.657-5.671-13.822-4.684-19.842-4.684-57.262 0-30.878 25.122-56 56-56h94.017c26.055 0 40.067-10.934 60.642-23.794 13.7-8.563 31.188-9.395 45.639-2.168 25.197 12.599 55.412 10.717 78.854-4.909l10.72-7.147 30.995 12.398 71.133 42.68v17.189c0 16.567-24.536 20.106-34.687 4.877-2.967-4.451-7.963-7.125-13.313-7.125-26.398 0-48.834 17.998-54.561 43.767l-3.781 17.017c-1.468 6.604-7.218 11.216-13.982 11.216-21.296 0-39.776 14.429-44.94 35.088-2.693 10.772 2.703-2.722-33.356 78.414-3.589 8.075.048 17.53 8.123 21.119 8.076 3.59 17.53-.047 21.119-8.123 37.575-84.543 31.652-69.619 35.159-83.649 1.597-6.388 7.311-10.849 13.896-10.849 21.878 0 40.473-14.917 45.22-36.274l3.781-17.017c1.943-8.745 8.387-15.395 16.606-17.766 31.31 31.463 86.717 13.584 86.717-30.695v-26.248c0-5.62-2.948-10.828-7.768-13.72z"/><path d="m296.119 472.033h-7.437l-8.563-12.844c0-72.666.351-68.698-.821-72.215-13.963-41.89-23.179-79.383-23.179-130.94 0-8.836-7.164-16-16-16s-16 7.164-16 16c0 7.886.236 15.755.686 23.601-36.077-1.897-71.835-10.664-104.686-25.688v-29.913c0-8.836-7.164-16-16-16s-16 7.164-16 16v31.432c0 32.508-12.778 62.719-35.314 85.254-6.248 6.249-6.248 16.379 0 22.628 4.675 4.674 11.852 6.096 18.116 3.152 18.932 108.885 17.216 102.404 19.885 106.409l16 24c2.968 4.451 7.963 7.125 13.313 7.125h16c8.836 0 16-7.164 16-16s-7.164-16-16-16h-7.437l-9.378-14.066-21.406-123.121c8.949-14.633 15.32-30.637 18.882-47.447 19.121 7.961 39.032 14.057 59.339 18.192v158.441c0 6.607 2.003 7.849 18.687 32.875 2.968 4.451 7.963 7.125 13.313 7.125h16c8.836 0 16-7.164 16-16s-7.164-16-16-16h-7.437l-8.563-12.844v-148.745c6.589.661 13.198 1.113 19.813 1.36 4.427 32.292 10.885 54.918 20.187 82.824v69.404c0 6.607 2.003 7.849 18.687 32.875 2.968 4.451 7.963 7.125 13.313 7.125h16c8.836 0 16-7.164 16-16s-7.163-15.999-16-15.999z"/></svg>