<?xml version="1.0"?>
<svg xmlns="http://www.w3.org/2000/svg" id="Layer_1" enable-background="new 0 0 512.118 512.118" height="512px" viewBox="0 0 512.118 512.118" width="512px" class=""><g><path d="m504.348 138.312c-77.958-46.775-79.948-47.978-80.05-48.03 29.409-8.823 50.26-27.355 62.131-51.095 3.952-7.903.748-17.514-7.156-21.466-7.904-3.953-17.515-.747-21.466 7.156-7.223 14.447-19.551 25.806-34.388 31.914 5.636-9.83 8.699-21.058 8.699-32.759 0-8.836-7.164-16-16-16s-16 7.164-16 16c0 10.365-4.642 20.024-12.736 26.499l-7.776 6.221 4.351-30.457c1.25-8.748-4.829-16.852-13.577-18.102-8.747-1.247-16.852 4.829-18.102 13.577l-2.796 19.575c-6.858-4.898-13.364-8.18-13.364-17.312 0-8.836-7.164-16-16-16s-16 7.164-16 16c0 9.989 3.211 19.599 8.917 27.523l-32.613-10.191c-14.271-4.46-26.697-13.767-34.991-26.207-4.903-7.353-14.837-9.34-22.188-4.438-7.353 4.902-9.339 14.836-4.438 22.188 12.342 18.513 30.834 32.363 52.072 39l65.84 20.575c-11.15 3.26-23.329 2.3-33.989-3.03-24.35-12.18-53.82-10.78-76.91 3.65-18.199 11.373-27.101 18.93-43.68 18.93h-94.02c-48.52 0-88 39.48-88 88 0 34.233-1.612 48.236 7.08 69.41 5.19 12.66 6.08 26.92 2.5 40.13-9.645 35.574-9.998 35.265-9.45 39.49.65 5.082 15.155 118.4 16 125 .921 7.184 4.307 9.027 20.56 25.28 5.611 5.611 11.465 4.69 19.31 4.69 8.84 0 16-7.16 16-16 0-8.183-6.04-16-17.37-16l-7.45-7.45-10.29-80.32 33.92-17.74 17.43 100.25c.771 4.445 1.044 4.031 18.45 30.14 2.96 4.45 7.96 7.12 13.31 7.12h16c8.84 0 16-7.16 16-16s-7.16-16-16-16h-7.44l-9.37-14.07-21.41-123.1c8.95-14.63 15.33-30.64 18.89-47.46 19.12 7.97 39.03 14.06 59.33 18.19v158.44c0 6.542 2.006 7.854 18.69 32.88 2.96 4.45 7.96 7.12 13.31 7.12h16c8.84 0 16-7.16 16-16s-7.16-16-16-16h-7.44l-8.56-12.84v-67.74l25.28-48.64c4.827 22.289 9.741 36.883 14.72 51.82v69.4c0 6.542 2.006 7.854 18.69 32.88 2.96 4.45 7.96 7.12 13.31 7.12h16c8.84 0 16-7.16 16-16s-7.16-16-16-16h-7.44l-8.56-12.84v-59.16c27.751-20.808 28.396-20.367 30.75-25.8 37.347-84.023 31.55-69.447 35.03-83.35 1.6-6.39 7.31-10.85 13.9-10.85 21.87 0 40.47-14.92 45.22-36.27l3.78-17.02c1.94-8.75 8.38-15.4 16.6-17.77 31.284 31.438 86.72 13.617 86.72-30.69v-26.25c0-5.621-2.95-10.831-7.77-13.721z" data-original="#000000" class="active-path" data-old_color="#000000" fill="#FFFFFF"/></g> </svg>
